<mxfile host="app.diagrams.net" agent="Mozilla/5.0 (Windows NT 10.0; Win64; x64) AppleWebKit/537.36 (KHTML, like Gecko) Chrome/136.0.0.0 Safari/537.36" version="27.0.3">
  <diagram name="Page-1" id="BECqvl3VT9lfQXmkNtaU">
    <mxGraphModel dx="2316" dy="1649" grid="1" gridSize="10" guides="1" tooltips="1" connect="1" arrows="1" fold="1" page="0" pageScale="1" pageWidth="850" pageHeight="1100" math="0" shadow="0">
      <root>
        <mxCell id="0" />
        <mxCell id="1" parent="0" />
        <mxCell id="pflW-3yKm34LbVUq-xgN-266" value="&lt;span style=&quot;color: rgb(0, 0, 0); font-family: Helvetica; font-style: normal; font-variant-ligatures: normal; font-variant-caps: normal; font-weight: 400; letter-spacing: normal; orphans: 2; text-align: center; text-indent: 0px; text-transform: none; widows: 2; word-spacing: 0px; -webkit-text-stroke-width: 0px; white-space: normal; background-color: rgb(236, 236, 236); text-decoration-thickness: initial; text-decoration-style: initial; text-decoration-color: initial; float: none; display: inline !important;&quot;&gt;Change PTL based on SPS Order&amp;nbsp;&lt;/span&gt;" style="text;whiteSpace=wrap;html=1;fontSize=8;" vertex="1" parent="1">
          <mxGeometry x="253" y="820" width="126" height="20" as="geometry" />
        </mxCell>
        <mxCell id="pflW-3yKm34LbVUq-xgN-7" style="edgeStyle=orthogonalEdgeStyle;rounded=0;orthogonalLoop=1;jettySize=auto;html=1;exitX=0.5;exitY=1;exitDx=0;exitDy=0;" edge="1" parent="1" source="pflW-3yKm34LbVUq-xgN-1" target="pflW-3yKm34LbVUq-xgN-3">
          <mxGeometry relative="1" as="geometry" />
        </mxCell>
        <mxCell id="pflW-3yKm34LbVUq-xgN-1" value="SPS Order" style="rounded=0;whiteSpace=wrap;html=1;" vertex="1" parent="1">
          <mxGeometry x="135" y="50" width="120" height="20" as="geometry" />
        </mxCell>
        <mxCell id="pflW-3yKm34LbVUq-xgN-9" style="edgeStyle=orthogonalEdgeStyle;rounded=0;orthogonalLoop=1;jettySize=auto;html=1;exitX=0.5;exitY=1;exitDx=0;exitDy=0;entryX=0.5;entryY=0;entryDx=0;entryDy=0;" edge="1" parent="1" source="pflW-3yKm34LbVUq-xgN-2">
          <mxGeometry relative="1" as="geometry">
            <mxPoint x="195" y="180" as="targetPoint" />
          </mxGeometry>
        </mxCell>
        <mxCell id="pflW-3yKm34LbVUq-xgN-2" value="Reflects in Picker PDA" style="rounded=0;whiteSpace=wrap;html=1;" vertex="1" parent="1">
          <mxGeometry x="135" y="130" width="120" height="30" as="geometry" />
        </mxCell>
        <mxCell id="pflW-3yKm34LbVUq-xgN-8" style="edgeStyle=orthogonalEdgeStyle;rounded=0;orthogonalLoop=1;jettySize=auto;html=1;exitX=0.5;exitY=1;exitDx=0;exitDy=0;" edge="1" parent="1" source="pflW-3yKm34LbVUq-xgN-3" target="pflW-3yKm34LbVUq-xgN-2">
          <mxGeometry relative="1" as="geometry" />
        </mxCell>
        <mxCell id="pflW-3yKm34LbVUq-xgN-3" value="Auto Assign Cart#" style="rounded=0;whiteSpace=wrap;html=1;" vertex="1" parent="1">
          <mxGeometry x="135" y="90" width="120" height="20" as="geometry" />
        </mxCell>
        <mxCell id="pflW-3yKm34LbVUq-xgN-25" value="Cluster Picking &lt;br&gt;&lt;span style=&quot;font-weight: normal;&quot;&gt;[One Cluster - Multiple Picker- Multiple Delivery Point]&lt;/span&gt;" style="text;html=1;align=center;verticalAlign=middle;whiteSpace=wrap;rounded=0;fontStyle=1;fontSize=23;" vertex="1" parent="1">
          <mxGeometry x="110" y="-20" width="796" height="50" as="geometry" />
        </mxCell>
        <mxCell id="pflW-3yKm34LbVUq-xgN-114" style="edgeStyle=orthogonalEdgeStyle;rounded=0;orthogonalLoop=1;jettySize=auto;html=1;exitX=1;exitY=0.5;exitDx=0;exitDy=0;entryX=0;entryY=0.5;entryDx=0;entryDy=0;" edge="1" parent="1" source="pflW-3yKm34LbVUq-xgN-185" target="pflW-3yKm34LbVUq-xgN-56">
          <mxGeometry relative="1" as="geometry">
            <mxPoint x="189" y="520" as="sourcePoint" />
            <Array as="points">
              <mxPoint x="304" y="613" />
              <mxPoint x="304" y="60" />
            </Array>
          </mxGeometry>
        </mxCell>
        <mxCell id="pflW-3yKm34LbVUq-xgN-55" style="edgeStyle=orthogonalEdgeStyle;rounded=0;orthogonalLoop=1;jettySize=auto;html=1;exitX=0.5;exitY=1;exitDx=0;exitDy=0;" edge="1" parent="1" source="pflW-3yKm34LbVUq-xgN-56" target="pflW-3yKm34LbVUq-xgN-60">
          <mxGeometry relative="1" as="geometry" />
        </mxCell>
        <mxCell id="pflW-3yKm34LbVUq-xgN-56" value="SPS Order" style="rounded=0;whiteSpace=wrap;html=1;" vertex="1" parent="1">
          <mxGeometry x="383" y="50" width="120" height="20" as="geometry" />
        </mxCell>
        <mxCell id="pflW-3yKm34LbVUq-xgN-57" style="edgeStyle=orthogonalEdgeStyle;rounded=0;orthogonalLoop=1;jettySize=auto;html=1;exitX=0.5;exitY=1;exitDx=0;exitDy=0;entryX=0.5;entryY=0;entryDx=0;entryDy=0;" edge="1" parent="1" source="pflW-3yKm34LbVUq-xgN-58">
          <mxGeometry relative="1" as="geometry">
            <mxPoint x="443" y="180" as="targetPoint" />
          </mxGeometry>
        </mxCell>
        <mxCell id="pflW-3yKm34LbVUq-xgN-58" value="Reflects in Picker PDA" style="rounded=0;whiteSpace=wrap;html=1;" vertex="1" parent="1">
          <mxGeometry x="383" y="130" width="120" height="30" as="geometry" />
        </mxCell>
        <mxCell id="pflW-3yKm34LbVUq-xgN-59" style="edgeStyle=orthogonalEdgeStyle;rounded=0;orthogonalLoop=1;jettySize=auto;html=1;exitX=0.5;exitY=1;exitDx=0;exitDy=0;" edge="1" parent="1" source="pflW-3yKm34LbVUq-xgN-60" target="pflW-3yKm34LbVUq-xgN-58">
          <mxGeometry relative="1" as="geometry" />
        </mxCell>
        <mxCell id="pflW-3yKm34LbVUq-xgN-60" value="Auto Assign Cart#" style="rounded=0;whiteSpace=wrap;html=1;" vertex="1" parent="1">
          <mxGeometry x="383" y="90" width="120" height="20" as="geometry" />
        </mxCell>
        <mxCell id="pflW-3yKm34LbVUq-xgN-72" style="edgeStyle=orthogonalEdgeStyle;rounded=0;orthogonalLoop=1;jettySize=auto;html=1;exitX=0.5;exitY=1;exitDx=0;exitDy=0;entryX=0.5;entryY=0;entryDx=0;entryDy=0;entryPerimeter=0;" edge="1" parent="1" target="pflW-3yKm34LbVUq-xgN-233">
          <mxGeometry relative="1" as="geometry">
            <mxPoint x="443" y="260" as="sourcePoint" />
            <mxPoint x="443" y="280" as="targetPoint" />
          </mxGeometry>
        </mxCell>
        <mxCell id="pflW-3yKm34LbVUq-xgN-84" value="Reject &amp;amp; Fore Re-scan" style="text;html=1;align=center;verticalAlign=middle;whiteSpace=wrap;rounded=0;rotation=270;" vertex="1" parent="1">
          <mxGeometry x="288" y="441" width="140" height="20" as="geometry" />
        </mxCell>
        <mxCell id="pflW-3yKm34LbVUq-xgN-116" style="edgeStyle=orthogonalEdgeStyle;rounded=0;orthogonalLoop=1;jettySize=auto;html=1;exitX=0.5;exitY=1;exitDx=0;exitDy=0;" edge="1" parent="1" source="pflW-3yKm34LbVUq-xgN-117" target="pflW-3yKm34LbVUq-xgN-121">
          <mxGeometry relative="1" as="geometry" />
        </mxCell>
        <mxCell id="pflW-3yKm34LbVUq-xgN-117" value="SPS Order" style="rounded=0;whiteSpace=wrap;html=1;" vertex="1" parent="1">
          <mxGeometry x="598" y="50" width="120" height="20" as="geometry" />
        </mxCell>
        <mxCell id="pflW-3yKm34LbVUq-xgN-118" style="edgeStyle=orthogonalEdgeStyle;rounded=0;orthogonalLoop=1;jettySize=auto;html=1;exitX=0.5;exitY=1;exitDx=0;exitDy=0;entryX=0.5;entryY=0;entryDx=0;entryDy=0;" edge="1" parent="1" source="pflW-3yKm34LbVUq-xgN-119">
          <mxGeometry relative="1" as="geometry">
            <mxPoint x="658" y="180" as="targetPoint" />
          </mxGeometry>
        </mxCell>
        <mxCell id="pflW-3yKm34LbVUq-xgN-119" value="Reflects in Picker PDA" style="rounded=0;whiteSpace=wrap;html=1;" vertex="1" parent="1">
          <mxGeometry x="598" y="130" width="120" height="30" as="geometry" />
        </mxCell>
        <mxCell id="pflW-3yKm34LbVUq-xgN-120" style="edgeStyle=orthogonalEdgeStyle;rounded=0;orthogonalLoop=1;jettySize=auto;html=1;exitX=0.5;exitY=1;exitDx=0;exitDy=0;" edge="1" parent="1" source="pflW-3yKm34LbVUq-xgN-121" target="pflW-3yKm34LbVUq-xgN-119">
          <mxGeometry relative="1" as="geometry" />
        </mxCell>
        <mxCell id="pflW-3yKm34LbVUq-xgN-121" value="Auto Assign Cart#" style="rounded=0;whiteSpace=wrap;html=1;" vertex="1" parent="1">
          <mxGeometry x="598" y="90" width="120" height="20" as="geometry" />
        </mxCell>
        <mxCell id="pflW-3yKm34LbVUq-xgN-122" style="edgeStyle=orthogonalEdgeStyle;rounded=0;orthogonalLoop=1;jettySize=auto;html=1;exitX=0.5;exitY=1;exitDx=0;exitDy=0;entryX=0.5;entryY=0;entryDx=0;entryDy=0;" edge="1" parent="1" source="pflW-3yKm34LbVUq-xgN-124" target="pflW-3yKm34LbVUq-xgN-127">
          <mxGeometry relative="1" as="geometry" />
        </mxCell>
        <mxCell id="pflW-3yKm34LbVUq-xgN-123" style="edgeStyle=orthogonalEdgeStyle;rounded=0;orthogonalLoop=1;jettySize=auto;html=1;exitX=0;exitY=0.5;exitDx=0;exitDy=0;entryX=0;entryY=0.5;entryDx=0;entryDy=0;" edge="1" parent="1" source="pflW-3yKm34LbVUq-xgN-124" target="pflW-3yKm34LbVUq-xgN-131">
          <mxGeometry relative="1" as="geometry" />
        </mxCell>
        <mxCell id="pflW-3yKm34LbVUq-xgN-124" value="Wrong Cart Scanned" style="rhombus;whiteSpace=wrap;html=1;" vertex="1" parent="1">
          <mxGeometry x="618" y="328" width="80" height="80" as="geometry" />
        </mxCell>
        <mxCell id="pflW-3yKm34LbVUq-xgN-125" value="Yes" style="text;html=1;align=center;verticalAlign=middle;whiteSpace=wrap;rounded=0;" vertex="1" parent="1">
          <mxGeometry x="595" y="353" width="30" height="10" as="geometry" />
        </mxCell>
        <mxCell id="pflW-3yKm34LbVUq-xgN-126" style="edgeStyle=orthogonalEdgeStyle;rounded=0;orthogonalLoop=1;jettySize=auto;html=1;exitX=0.5;exitY=1;exitDx=0;exitDy=0;" edge="1" parent="1" source="pflW-3yKm34LbVUq-xgN-127" target="pflW-3yKm34LbVUq-xgN-142">
          <mxGeometry relative="1" as="geometry" />
        </mxCell>
        <mxCell id="pflW-3yKm34LbVUq-xgN-127" value="Turn ON PTL&amp;nbsp;" style="rounded=0;whiteSpace=wrap;html=1;" vertex="1" parent="1">
          <mxGeometry x="598" y="428" width="120" height="30" as="geometry" />
        </mxCell>
        <mxCell id="pflW-3yKm34LbVUq-xgN-128" value="" style="ellipse;whiteSpace=wrap;html=1;aspect=fixed;fillColor=#fff2cc;strokeColor=#d6b656;" vertex="1" parent="1">
          <mxGeometry x="698" y="438" width="10" height="10" as="geometry" />
        </mxCell>
        <mxCell id="pflW-3yKm34LbVUq-xgN-129" value="No" style="text;html=1;align=center;verticalAlign=middle;whiteSpace=wrap;rounded=0;" vertex="1" parent="1">
          <mxGeometry x="658" y="408" width="30" height="10" as="geometry" />
        </mxCell>
        <mxCell id="pflW-3yKm34LbVUq-xgN-130" style="edgeStyle=orthogonalEdgeStyle;rounded=0;orthogonalLoop=1;jettySize=auto;html=1;exitX=0.5;exitY=1;exitDx=0;exitDy=0;entryX=0.5;entryY=0;entryDx=0;entryDy=0;" edge="1" parent="1" source="pflW-3yKm34LbVUq-xgN-131" target="pflW-3yKm34LbVUq-xgN-124">
          <mxGeometry relative="1" as="geometry" />
        </mxCell>
        <mxCell id="pflW-3yKm34LbVUq-xgN-131" value="Scan Empty Cart to confirm Mapping" style="rounded=0;whiteSpace=wrap;html=1;" vertex="1" parent="1">
          <mxGeometry x="598" y="280" width="120" height="30" as="geometry" />
        </mxCell>
        <mxCell id="pflW-3yKm34LbVUq-xgN-132" style="edgeStyle=orthogonalEdgeStyle;rounded=0;orthogonalLoop=1;jettySize=auto;html=1;exitX=0;exitY=0.5;exitDx=0;exitDy=0;entryX=0;entryY=0.5;entryDx=0;entryDy=0;" edge="1" parent="1" source="pflW-3yKm34LbVUq-xgN-134" target="pflW-3yKm34LbVUq-xgN-121">
          <mxGeometry relative="1" as="geometry">
            <Array as="points">
              <mxPoint x="584" y="220" />
              <mxPoint x="584" y="100" />
            </Array>
          </mxGeometry>
        </mxCell>
        <mxCell id="pflW-3yKm34LbVUq-xgN-133" style="edgeStyle=orthogonalEdgeStyle;rounded=0;orthogonalLoop=1;jettySize=auto;html=1;exitX=0.5;exitY=1;exitDx=0;exitDy=0;" edge="1" parent="1" source="pflW-3yKm34LbVUq-xgN-134" target="pflW-3yKm34LbVUq-xgN-131">
          <mxGeometry relative="1" as="geometry" />
        </mxCell>
        <mxCell id="pflW-3yKm34LbVUq-xgN-134" value="Damaged Cart&amp;nbsp;" style="rhombus;whiteSpace=wrap;html=1;" vertex="1" parent="1">
          <mxGeometry x="618" y="180" width="80" height="80" as="geometry" />
        </mxCell>
        <mxCell id="pflW-3yKm34LbVUq-xgN-135" value="Yes" style="text;html=1;align=center;verticalAlign=middle;whiteSpace=wrap;rounded=0;" vertex="1" parent="1">
          <mxGeometry x="584" y="210" width="40" height="10" as="geometry" />
        </mxCell>
        <mxCell id="pflW-3yKm34LbVUq-xgN-312" style="edgeStyle=orthogonalEdgeStyle;rounded=0;orthogonalLoop=1;jettySize=auto;html=1;exitX=0.5;exitY=1;exitDx=0;exitDy=0;" edge="1" parent="1" source="pflW-3yKm34LbVUq-xgN-137" target="pflW-3yKm34LbVUq-xgN-310">
          <mxGeometry relative="1" as="geometry" />
        </mxCell>
        <mxCell id="pflW-3yKm34LbVUq-xgN-137" value="Pick the Part and Turn off PTL" style="rounded=0;whiteSpace=wrap;html=1;" vertex="1" parent="1">
          <mxGeometry x="597" y="580" width="120" height="30" as="geometry" />
        </mxCell>
        <mxCell id="pflW-3yKm34LbVUq-xgN-141" style="edgeStyle=orthogonalEdgeStyle;rounded=0;orthogonalLoop=1;jettySize=auto;html=1;exitX=0.5;exitY=1;exitDx=0;exitDy=0;entryX=0.5;entryY=0;entryDx=0;entryDy=0;" edge="1" parent="1" source="pflW-3yKm34LbVUq-xgN-142" target="pflW-3yKm34LbVUq-xgN-137">
          <mxGeometry relative="1" as="geometry" />
        </mxCell>
        <mxCell id="pflW-3yKm34LbVUq-xgN-142" value="Parallel Picking" style="rhombus;whiteSpace=wrap;html=1;" vertex="1" parent="1">
          <mxGeometry x="618" y="480" width="80" height="80" as="geometry" />
        </mxCell>
        <mxCell id="pflW-3yKm34LbVUq-xgN-144" value="Reject &amp;amp; Fore Re-scan" style="text;html=1;align=center;verticalAlign=middle;whiteSpace=wrap;rounded=0;rotation=270;" vertex="1" parent="1">
          <mxGeometry x="500" y="310" width="140" height="20" as="geometry" />
        </mxCell>
        <mxCell id="pflW-3yKm34LbVUq-xgN-163" style="edgeStyle=orthogonalEdgeStyle;rounded=0;orthogonalLoop=1;jettySize=auto;html=1;exitX=0.5;exitY=0;exitDx=0;exitDy=0;entryX=0;entryY=0.5;entryDx=0;entryDy=0;" edge="1" parent="1" source="pflW-3yKm34LbVUq-xgN-168" target="pflW-3yKm34LbVUq-xgN-175">
          <mxGeometry relative="1" as="geometry">
            <mxPoint x="550" y="210" as="sourcePoint" />
            <mxPoint x="50" y="240" as="targetPoint" />
          </mxGeometry>
        </mxCell>
        <mxCell id="pflW-3yKm34LbVUq-xgN-164" value="Force Re-scan" style="text;html=1;align=center;verticalAlign=middle;whiteSpace=wrap;rounded=0;" vertex="1" parent="1">
          <mxGeometry x="41" y="374" width="90" height="20" as="geometry" />
        </mxCell>
        <mxCell id="pflW-3yKm34LbVUq-xgN-165" style="edgeStyle=orthogonalEdgeStyle;rounded=0;orthogonalLoop=1;jettySize=auto;html=1;exitX=0;exitY=0.5;exitDx=0;exitDy=0;entryX=1;entryY=0.5;entryDx=0;entryDy=0;" edge="1" parent="1" source="pflW-3yKm34LbVUq-xgN-167">
          <mxGeometry relative="1" as="geometry">
            <mxPoint x="128" y="468" as="targetPoint" />
          </mxGeometry>
        </mxCell>
        <mxCell id="pflW-3yKm34LbVUq-xgN-166" style="edgeStyle=orthogonalEdgeStyle;rounded=0;orthogonalLoop=1;jettySize=auto;html=1;exitX=0.5;exitY=1;exitDx=0;exitDy=0;entryX=0.5;entryY=0;entryDx=0;entryDy=0;" edge="1" parent="1" source="pflW-3yKm34LbVUq-xgN-167" target="pflW-3yKm34LbVUq-xgN-171">
          <mxGeometry relative="1" as="geometry" />
        </mxCell>
        <mxCell id="pflW-3yKm34LbVUq-xgN-167" value="Wrong Cart Scanned" style="rhombus;whiteSpace=wrap;html=1;" vertex="1" parent="1">
          <mxGeometry x="155" y="428" width="80" height="80" as="geometry" />
        </mxCell>
        <mxCell id="pflW-3yKm34LbVUq-xgN-168" value="Rejects Cart#" style="rounded=0;whiteSpace=wrap;html=1;" vertex="1" parent="1">
          <mxGeometry x="11" y="453" width="120" height="30" as="geometry" />
        </mxCell>
        <mxCell id="pflW-3yKm34LbVUq-xgN-169" value="Yes" style="text;html=1;align=center;verticalAlign=middle;whiteSpace=wrap;rounded=0;" vertex="1" parent="1">
          <mxGeometry x="132" y="453" width="30" height="10" as="geometry" />
        </mxCell>
        <mxCell id="pflW-3yKm34LbVUq-xgN-170" style="edgeStyle=orthogonalEdgeStyle;rounded=0;orthogonalLoop=1;jettySize=auto;html=1;exitX=0.5;exitY=1;exitDx=0;exitDy=0;" edge="1" parent="1" source="pflW-3yKm34LbVUq-xgN-171" target="pflW-3yKm34LbVUq-xgN-185">
          <mxGeometry relative="1" as="geometry" />
        </mxCell>
        <mxCell id="pflW-3yKm34LbVUq-xgN-171" value="Turn ON PTL&amp;nbsp;" style="rounded=0;whiteSpace=wrap;html=1;" vertex="1" parent="1">
          <mxGeometry x="135" y="528" width="120" height="30" as="geometry" />
        </mxCell>
        <mxCell id="pflW-3yKm34LbVUq-xgN-172" value="" style="ellipse;whiteSpace=wrap;html=1;aspect=fixed;fillColor=#f8cecc;strokeColor=#b85450;" vertex="1" parent="1">
          <mxGeometry x="235" y="538" width="10" height="10" as="geometry" />
        </mxCell>
        <mxCell id="pflW-3yKm34LbVUq-xgN-173" value="No" style="text;html=1;align=center;verticalAlign=middle;whiteSpace=wrap;rounded=0;" vertex="1" parent="1">
          <mxGeometry x="195" y="508" width="30" height="10" as="geometry" />
        </mxCell>
        <mxCell id="pflW-3yKm34LbVUq-xgN-174" style="edgeStyle=orthogonalEdgeStyle;rounded=0;orthogonalLoop=1;jettySize=auto;html=1;exitX=0.5;exitY=1;exitDx=0;exitDy=0;entryX=0.5;entryY=0;entryDx=0;entryDy=0;" edge="1" parent="1" source="pflW-3yKm34LbVUq-xgN-175" target="pflW-3yKm34LbVUq-xgN-167">
          <mxGeometry relative="1" as="geometry" />
        </mxCell>
        <mxCell id="pflW-3yKm34LbVUq-xgN-175" value="Scan Empty Cart to confirm Mapping" style="rounded=0;whiteSpace=wrap;html=1;" vertex="1" parent="1">
          <mxGeometry x="135" y="380" width="120" height="30" as="geometry" />
        </mxCell>
        <mxCell id="pflW-3yKm34LbVUq-xgN-176" style="edgeStyle=orthogonalEdgeStyle;rounded=0;orthogonalLoop=1;jettySize=auto;html=1;exitX=0.5;exitY=1;exitDx=0;exitDy=0;" edge="1" parent="1" source="pflW-3yKm34LbVUq-xgN-177" target="pflW-3yKm34LbVUq-xgN-175">
          <mxGeometry relative="1" as="geometry" />
        </mxCell>
        <mxCell id="pflW-3yKm34LbVUq-xgN-177" value="Damaged Cart&amp;nbsp;" style="rhombus;whiteSpace=wrap;html=1;" vertex="1" parent="1">
          <mxGeometry x="155" y="280" width="80" height="80" as="geometry" />
        </mxCell>
        <mxCell id="pflW-3yKm34LbVUq-xgN-178" value="Yes" style="text;html=1;align=center;verticalAlign=middle;whiteSpace=wrap;rounded=0;" vertex="1" parent="1">
          <mxGeometry x="121" y="310" width="40" height="10" as="geometry" />
        </mxCell>
        <mxCell id="pflW-3yKm34LbVUq-xgN-250" style="edgeStyle=orthogonalEdgeStyle;rounded=0;orthogonalLoop=1;jettySize=auto;html=1;exitX=0.5;exitY=1;exitDx=0;exitDy=0;entryX=0.5;entryY=0;entryDx=0;entryDy=0;" edge="1" parent="1" source="pflW-3yKm34LbVUq-xgN-180" target="pflW-3yKm34LbVUq-xgN-249">
          <mxGeometry relative="1" as="geometry" />
        </mxCell>
        <mxCell id="pflW-3yKm34LbVUq-xgN-180" value="Pick the Part and Turn off PTL" style="rounded=0;whiteSpace=wrap;html=1;" vertex="1" parent="1">
          <mxGeometry x="134" y="674" width="120" height="30" as="geometry" />
        </mxCell>
        <mxCell id="pflW-3yKm34LbVUq-xgN-184" style="edgeStyle=orthogonalEdgeStyle;rounded=0;orthogonalLoop=1;jettySize=auto;html=1;exitX=0.5;exitY=1;exitDx=0;exitDy=0;entryX=0.5;entryY=0;entryDx=0;entryDy=0;" edge="1" parent="1" source="pflW-3yKm34LbVUq-xgN-185" target="pflW-3yKm34LbVUq-xgN-180">
          <mxGeometry relative="1" as="geometry" />
        </mxCell>
        <mxCell id="pflW-3yKm34LbVUq-xgN-185" value="Parallel Picking" style="rhombus;whiteSpace=wrap;html=1;" vertex="1" parent="1">
          <mxGeometry x="155" y="573" width="80" height="80" as="geometry" />
        </mxCell>
        <mxCell id="pflW-3yKm34LbVUq-xgN-186" value="No" style="text;html=1;align=center;verticalAlign=middle;whiteSpace=wrap;rounded=0;" vertex="1" parent="1">
          <mxGeometry x="195" y="660" width="30" height="12" as="geometry" />
        </mxCell>
        <mxCell id="pflW-3yKm34LbVUq-xgN-190" style="edgeStyle=orthogonalEdgeStyle;rounded=0;orthogonalLoop=1;jettySize=auto;html=1;exitX=0.5;exitY=1;exitDx=0;exitDy=0;entryX=0.5;entryY=0;entryDx=0;entryDy=0;" edge="1" parent="1" source="pflW-3yKm34LbVUq-xgN-187">
          <mxGeometry relative="1" as="geometry">
            <mxPoint x="195" y="280" as="targetPoint" />
          </mxGeometry>
        </mxCell>
        <mxCell id="pflW-3yKm34LbVUq-xgN-192" style="edgeStyle=orthogonalEdgeStyle;rounded=0;orthogonalLoop=1;jettySize=auto;html=1;exitX=1;exitY=0.5;exitDx=0;exitDy=0;entryX=0;entryY=0.5;entryDx=0;entryDy=0;" edge="1" parent="1" source="pflW-3yKm34LbVUq-xgN-187" target="pflW-3yKm34LbVUq-xgN-56">
          <mxGeometry relative="1" as="geometry">
            <Array as="points">
              <mxPoint x="350" y="220" />
              <mxPoint x="350" y="60" />
            </Array>
          </mxGeometry>
        </mxCell>
        <mxCell id="pflW-3yKm34LbVUq-xgN-187" value="User Accept" style="rhombus;whiteSpace=wrap;html=1;" vertex="1" parent="1">
          <mxGeometry x="155" y="180" width="80" height="80" as="geometry" />
        </mxCell>
        <mxCell id="pflW-3yKm34LbVUq-xgN-188" style="edgeStyle=orthogonalEdgeStyle;rounded=0;orthogonalLoop=1;jettySize=auto;html=1;exitX=0.875;exitY=0.989;exitDx=0;exitDy=0;entryX=0;entryY=0.5;entryDx=0;entryDy=0;exitPerimeter=0;" edge="1" parent="1" source="pflW-3yKm34LbVUq-xgN-178" target="pflW-3yKm34LbVUq-xgN-3">
          <mxGeometry relative="1" as="geometry">
            <mxPoint x="149" y="319.9999999999999" as="sourcePoint" />
            <mxPoint x="129" y="200" as="targetPoint" />
            <Array as="points">
              <mxPoint x="115" y="320" />
              <mxPoint x="115" y="100" />
            </Array>
          </mxGeometry>
        </mxCell>
        <mxCell id="pflW-3yKm34LbVUq-xgN-189" value="Update the PDA" style="text;html=1;align=center;verticalAlign=middle;whiteSpace=wrap;rounded=0;rotation=270;" vertex="1" parent="1">
          <mxGeometry x="55" y="260" width="100" height="20" as="geometry" />
        </mxCell>
        <mxCell id="pflW-3yKm34LbVUq-xgN-191" value="Yes" style="text;html=1;align=center;verticalAlign=middle;whiteSpace=wrap;rounded=0;" vertex="1" parent="1">
          <mxGeometry x="195" y="260" width="40" height="10" as="geometry" />
        </mxCell>
        <mxCell id="pflW-3yKm34LbVUq-xgN-193" value="No" style="text;html=1;align=center;verticalAlign=middle;whiteSpace=wrap;rounded=0;" vertex="1" parent="1">
          <mxGeometry x="230" y="210" width="40" height="10" as="geometry" />
        </mxCell>
        <mxCell id="pflW-3yKm34LbVUq-xgN-194" value="Escalate to Team Leader" style="text;html=1;align=center;verticalAlign=middle;whiteSpace=wrap;rounded=0;rotation=270;" vertex="1" parent="1">
          <mxGeometry x="199" y="135" width="140" height="20" as="geometry" />
        </mxCell>
        <mxCell id="pflW-3yKm34LbVUq-xgN-213" style="edgeStyle=orthogonalEdgeStyle;rounded=0;orthogonalLoop=1;jettySize=auto;html=1;exitX=0.5;exitY=1;exitDx=0;exitDy=0;entryX=0.5;entryY=0;entryDx=0;entryDy=0;" edge="1" parent="1" source="pflW-3yKm34LbVUq-xgN-215" target="pflW-3yKm34LbVUq-xgN-218">
          <mxGeometry relative="1" as="geometry" />
        </mxCell>
        <mxCell id="pflW-3yKm34LbVUq-xgN-214" style="edgeStyle=orthogonalEdgeStyle;rounded=0;orthogonalLoop=1;jettySize=auto;html=1;exitX=0;exitY=0.5;exitDx=0;exitDy=0;entryX=0;entryY=0.5;entryDx=0;entryDy=0;" edge="1" parent="1" source="pflW-3yKm34LbVUq-xgN-215" target="pflW-3yKm34LbVUq-xgN-222">
          <mxGeometry relative="1" as="geometry">
            <Array as="points">
              <mxPoint x="368" y="461" />
              <mxPoint x="368" y="388" />
            </Array>
          </mxGeometry>
        </mxCell>
        <mxCell id="pflW-3yKm34LbVUq-xgN-215" value="Wrong Cart Scanned" style="rhombus;whiteSpace=wrap;html=1;" vertex="1" parent="1">
          <mxGeometry x="402.99999999999994" y="421" width="80" height="80" as="geometry" />
        </mxCell>
        <mxCell id="pflW-3yKm34LbVUq-xgN-216" value="Yes" style="text;html=1;align=center;verticalAlign=middle;whiteSpace=wrap;rounded=0;" vertex="1" parent="1">
          <mxGeometry x="379.99999999999994" y="446" width="30" height="10" as="geometry" />
        </mxCell>
        <mxCell id="pflW-3yKm34LbVUq-xgN-217" style="edgeStyle=orthogonalEdgeStyle;rounded=0;orthogonalLoop=1;jettySize=auto;html=1;exitX=0.5;exitY=1;exitDx=0;exitDy=0;" edge="1" parent="1" source="pflW-3yKm34LbVUq-xgN-218" target="pflW-3yKm34LbVUq-xgN-229">
          <mxGeometry relative="1" as="geometry" />
        </mxCell>
        <mxCell id="pflW-3yKm34LbVUq-xgN-218" value="Turn ON PTL&amp;nbsp;" style="rounded=0;whiteSpace=wrap;html=1;" vertex="1" parent="1">
          <mxGeometry x="382.99999999999994" y="521" width="120" height="30" as="geometry" />
        </mxCell>
        <mxCell id="pflW-3yKm34LbVUq-xgN-219" value="" style="ellipse;whiteSpace=wrap;html=1;aspect=fixed;fillColor=#dae8fc;strokeColor=#6c8ebf;" vertex="1" parent="1">
          <mxGeometry x="482.99999999999994" y="531" width="10" height="10" as="geometry" />
        </mxCell>
        <mxCell id="pflW-3yKm34LbVUq-xgN-220" value="No" style="text;html=1;align=center;verticalAlign=middle;whiteSpace=wrap;rounded=0;" vertex="1" parent="1">
          <mxGeometry x="442.99999999999994" y="501" width="30" height="10" as="geometry" />
        </mxCell>
        <mxCell id="pflW-3yKm34LbVUq-xgN-221" style="edgeStyle=orthogonalEdgeStyle;rounded=0;orthogonalLoop=1;jettySize=auto;html=1;exitX=0.5;exitY=1;exitDx=0;exitDy=0;entryX=0.5;entryY=0;entryDx=0;entryDy=0;" edge="1" parent="1" source="pflW-3yKm34LbVUq-xgN-222" target="pflW-3yKm34LbVUq-xgN-215">
          <mxGeometry relative="1" as="geometry" />
        </mxCell>
        <mxCell id="pflW-3yKm34LbVUq-xgN-222" value="Scan Empty Cart to confirm Mapping" style="rounded=0;whiteSpace=wrap;html=1;" vertex="1" parent="1">
          <mxGeometry x="382.99999999999994" y="373" width="120" height="30" as="geometry" />
        </mxCell>
        <mxCell id="pflW-3yKm34LbVUq-xgN-223" style="edgeStyle=orthogonalEdgeStyle;rounded=0;orthogonalLoop=1;jettySize=auto;html=1;exitX=0.5;exitY=1;exitDx=0;exitDy=0;entryX=0.5;entryY=0;entryDx=0;entryDy=0;" edge="1" parent="1" source="pflW-3yKm34LbVUq-xgN-224">
          <mxGeometry relative="1" as="geometry">
            <mxPoint x="442" y="723" as="targetPoint" />
          </mxGeometry>
        </mxCell>
        <mxCell id="pflW-3yKm34LbVUq-xgN-224" value="Pick the Part and Turn off PTL" style="rounded=0;whiteSpace=wrap;html=1;" vertex="1" parent="1">
          <mxGeometry x="381.99999999999994" y="673" width="120" height="30" as="geometry" />
        </mxCell>
        <mxCell id="pflW-3yKm34LbVUq-xgN-228" style="edgeStyle=orthogonalEdgeStyle;rounded=0;orthogonalLoop=1;jettySize=auto;html=1;exitX=0.5;exitY=1;exitDx=0;exitDy=0;entryX=0.5;entryY=0;entryDx=0;entryDy=0;" edge="1" parent="1" source="pflW-3yKm34LbVUq-xgN-229" target="pflW-3yKm34LbVUq-xgN-224">
          <mxGeometry relative="1" as="geometry" />
        </mxCell>
        <mxCell id="pflW-3yKm34LbVUq-xgN-301" style="edgeStyle=orthogonalEdgeStyle;rounded=0;orthogonalLoop=1;jettySize=auto;html=1;exitX=1;exitY=0.5;exitDx=0;exitDy=0;entryX=0;entryY=0.5;entryDx=0;entryDy=0;" edge="1" parent="1" source="pflW-3yKm34LbVUq-xgN-229" target="pflW-3yKm34LbVUq-xgN-117">
          <mxGeometry relative="1" as="geometry" />
        </mxCell>
        <mxCell id="pflW-3yKm34LbVUq-xgN-229" value="Parallel Picking" style="rhombus;whiteSpace=wrap;html=1;" vertex="1" parent="1">
          <mxGeometry x="402.99999999999994" y="573" width="80" height="80" as="geometry" />
        </mxCell>
        <mxCell id="pflW-3yKm34LbVUq-xgN-230" value="No" style="text;html=1;align=center;verticalAlign=middle;whiteSpace=wrap;rounded=0;" vertex="1" parent="1">
          <mxGeometry x="442.99999999999994" y="653" width="30" height="12" as="geometry" />
        </mxCell>
        <mxCell id="pflW-3yKm34LbVUq-xgN-231" value="No" style="text;html=1;align=center;verticalAlign=middle;whiteSpace=wrap;rounded=0;" vertex="1" parent="1">
          <mxGeometry x="199" y="363" width="40" height="10" as="geometry" />
        </mxCell>
        <mxCell id="pflW-3yKm34LbVUq-xgN-232" style="edgeStyle=orthogonalEdgeStyle;rounded=0;orthogonalLoop=1;jettySize=auto;html=1;exitX=0;exitY=0.5;exitDx=0;exitDy=0;entryX=0;entryY=0.5;entryDx=0;entryDy=0;" edge="1" parent="1" source="pflW-3yKm34LbVUq-xgN-233" target="pflW-3yKm34LbVUq-xgN-58">
          <mxGeometry relative="1" as="geometry">
            <Array as="points">
              <mxPoint x="369" y="320" />
              <mxPoint x="369" y="145" />
            </Array>
            <mxPoint x="383" y="200" as="targetPoint" />
          </mxGeometry>
        </mxCell>
        <mxCell id="pflW-3yKm34LbVUq-xgN-238" style="edgeStyle=orthogonalEdgeStyle;rounded=0;orthogonalLoop=1;jettySize=auto;html=1;exitX=0.5;exitY=1;exitDx=0;exitDy=0;entryX=0.5;entryY=0;entryDx=0;entryDy=0;" edge="1" parent="1" source="pflW-3yKm34LbVUq-xgN-233" target="pflW-3yKm34LbVUq-xgN-222">
          <mxGeometry relative="1" as="geometry" />
        </mxCell>
        <mxCell id="pflW-3yKm34LbVUq-xgN-233" value="Damaged Cart&amp;nbsp;" style="rhombus;whiteSpace=wrap;html=1;" vertex="1" parent="1">
          <mxGeometry x="403" y="280" width="80" height="80" as="geometry" />
        </mxCell>
        <mxCell id="pflW-3yKm34LbVUq-xgN-234" value="Yes" style="text;html=1;align=center;verticalAlign=middle;whiteSpace=wrap;rounded=0;" vertex="1" parent="1">
          <mxGeometry x="369" y="310" width="40" height="10" as="geometry" />
        </mxCell>
        <mxCell id="pflW-3yKm34LbVUq-xgN-235" value="User Accept" style="rhombus;whiteSpace=wrap;html=1;" vertex="1" parent="1">
          <mxGeometry x="403" y="180" width="80" height="80" as="geometry" />
        </mxCell>
        <mxCell id="pflW-3yKm34LbVUq-xgN-236" value="Yes" style="text;html=1;align=center;verticalAlign=middle;whiteSpace=wrap;rounded=0;" vertex="1" parent="1">
          <mxGeometry x="443" y="260" width="40" height="10" as="geometry" />
        </mxCell>
        <mxCell id="pflW-3yKm34LbVUq-xgN-237" value="Update the PDA" style="text;html=1;align=center;verticalAlign=middle;whiteSpace=wrap;rounded=0;rotation=270;" vertex="1" parent="1">
          <mxGeometry x="328" y="247" width="100" height="20" as="geometry" />
        </mxCell>
        <mxCell id="pflW-3yKm34LbVUq-xgN-265" style="edgeStyle=orthogonalEdgeStyle;rounded=0;orthogonalLoop=1;jettySize=auto;html=1;exitX=0;exitY=0.5;exitDx=0;exitDy=0;entryX=1;entryY=0.5;entryDx=0;entryDy=0;" edge="1" parent="1" source="pflW-3yKm34LbVUq-xgN-242" target="pflW-3yKm34LbVUq-xgN-243">
          <mxGeometry relative="1" as="geometry" />
        </mxCell>
        <mxCell id="pflW-3yKm34LbVUq-xgN-268" style="edgeStyle=orthogonalEdgeStyle;rounded=0;orthogonalLoop=1;jettySize=auto;html=1;exitX=0.5;exitY=1;exitDx=0;exitDy=0;entryX=0.5;entryY=0;entryDx=0;entryDy=0;" edge="1" parent="1" source="pflW-3yKm34LbVUq-xgN-242" target="pflW-3yKm34LbVUq-xgN-261">
          <mxGeometry relative="1" as="geometry" />
        </mxCell>
        <mxCell id="pflW-3yKm34LbVUq-xgN-242" value="Common &lt;br&gt;Parts between Orders" style="rhombus;whiteSpace=wrap;html=1;" vertex="1" parent="1">
          <mxGeometry x="398.5" y="720" width="87" height="80" as="geometry" />
        </mxCell>
        <mxCell id="pflW-3yKm34LbVUq-xgN-260" style="edgeStyle=orthogonalEdgeStyle;rounded=0;orthogonalLoop=1;jettySize=auto;html=1;exitX=0;exitY=0.5;exitDx=0;exitDy=0;entryX=1;entryY=0.5;entryDx=0;entryDy=0;" edge="1" parent="1" source="pflW-3yKm34LbVUq-xgN-243" target="pflW-3yKm34LbVUq-xgN-249">
          <mxGeometry relative="1" as="geometry" />
        </mxCell>
        <mxCell id="pflW-3yKm34LbVUq-xgN-243" value="Keep the PTL&amp;nbsp;" style="rounded=0;whiteSpace=wrap;html=1;" vertex="1" parent="1">
          <mxGeometry x="260" y="745" width="120" height="30" as="geometry" />
        </mxCell>
        <mxCell id="pflW-3yKm34LbVUq-xgN-245" style="edgeStyle=orthogonalEdgeStyle;rounded=0;orthogonalLoop=1;jettySize=auto;html=1;entryX=0.5;entryY=0;entryDx=0;entryDy=0;" edge="1" parent="1" target="pflW-3yKm34LbVUq-xgN-247" source="pflW-3yKm34LbVUq-xgN-249">
          <mxGeometry relative="1" as="geometry">
            <mxPoint x="191" y="820" as="sourcePoint" />
          </mxGeometry>
        </mxCell>
        <mxCell id="pflW-3yKm34LbVUq-xgN-246" style="edgeStyle=orthogonalEdgeStyle;rounded=0;orthogonalLoop=1;jettySize=auto;html=1;exitX=0.5;exitY=1;exitDx=0;exitDy=0;entryX=0.5;entryY=0;entryDx=0;entryDy=0;" edge="1" parent="1" source="pflW-3yKm34LbVUq-xgN-247" target="pflW-3yKm34LbVUq-xgN-248">
          <mxGeometry relative="1" as="geometry" />
        </mxCell>
        <mxCell id="pflW-3yKm34LbVUq-xgN-263" style="edgeStyle=orthogonalEdgeStyle;rounded=0;orthogonalLoop=1;jettySize=auto;html=1;exitX=1;exitY=0.5;exitDx=0;exitDy=0;entryX=0;entryY=0.5;entryDx=0;entryDy=0;" edge="1" parent="1" source="pflW-3yKm34LbVUq-xgN-247" target="pflW-3yKm34LbVUq-xgN-261">
          <mxGeometry relative="1" as="geometry" />
        </mxCell>
        <mxCell id="pflW-3yKm34LbVUq-xgN-247" value="Complete the Task" style="rounded=0;whiteSpace=wrap;html=1;" vertex="1" parent="1">
          <mxGeometry x="134" y="830" width="120" height="30" as="geometry" />
        </mxCell>
        <mxCell id="pflW-3yKm34LbVUq-xgN-248" value="Confirm the Task" style="rounded=0;whiteSpace=wrap;html=1;" vertex="1" parent="1">
          <mxGeometry x="134" y="880" width="120" height="30" as="geometry" />
        </mxCell>
        <mxCell id="pflW-3yKm34LbVUq-xgN-249" value="Common Parts" style="rhombus;whiteSpace=wrap;html=1;" vertex="1" parent="1">
          <mxGeometry x="153.99999999999994" y="720" width="80" height="80" as="geometry" />
        </mxCell>
        <mxCell id="pflW-3yKm34LbVUq-xgN-251" value="No" style="text;html=1;align=center;verticalAlign=middle;whiteSpace=wrap;rounded=0;" vertex="1" parent="1">
          <mxGeometry x="195" y="810" width="30" height="10" as="geometry" />
        </mxCell>
        <mxCell id="pflW-3yKm34LbVUq-xgN-254" value="" style="ellipse;whiteSpace=wrap;html=1;aspect=fixed;fillColor=#f8cecc;strokeColor=#b85450;" vertex="1" parent="1">
          <mxGeometry x="359" y="755" width="10" height="10" as="geometry" />
        </mxCell>
        <mxCell id="pflW-3yKm34LbVUq-xgN-256" value="Turn Second Order PTL [Blue]" style="text;html=1;align=center;verticalAlign=middle;whiteSpace=wrap;rounded=0;rotation=270;" vertex="1" parent="1">
          <mxGeometry x="180" y="493" width="220" height="20" as="geometry" />
        </mxCell>
        <mxCell id="pflW-3yKm34LbVUq-xgN-279" style="edgeStyle=orthogonalEdgeStyle;rounded=0;orthogonalLoop=1;jettySize=auto;html=1;exitX=0.5;exitY=1;exitDx=0;exitDy=0;entryX=0.5;entryY=0;entryDx=0;entryDy=0;" edge="1" parent="1" source="pflW-3yKm34LbVUq-xgN-261" target="pflW-3yKm34LbVUq-xgN-277">
          <mxGeometry relative="1" as="geometry" />
        </mxCell>
        <mxCell id="pflW-3yKm34LbVUq-xgN-261" value="Follow PTL" style="rounded=0;whiteSpace=wrap;html=1;" vertex="1" parent="1">
          <mxGeometry x="381.99999999999994" y="830" width="120" height="30" as="geometry" />
        </mxCell>
        <mxCell id="pflW-3yKm34LbVUq-xgN-262" value="" style="ellipse;whiteSpace=wrap;html=1;aspect=fixed;fillColor=#dae8fc;strokeColor=#6c8ebf;" vertex="1" parent="1">
          <mxGeometry x="472.99999999999994" y="840" width="10" height="10" as="geometry" />
        </mxCell>
        <mxCell id="pflW-3yKm34LbVUq-xgN-264" value="Yes" style="text;html=1;align=center;verticalAlign=middle;whiteSpace=wrap;rounded=0;" vertex="1" parent="1">
          <mxGeometry x="383" y="745" width="30" height="10" as="geometry" />
        </mxCell>
        <mxCell id="pflW-3yKm34LbVUq-xgN-271" value="Confirm the Task" style="rounded=0;whiteSpace=wrap;html=1;" vertex="1" parent="1">
          <mxGeometry x="379" y="1390" width="120" height="30" as="geometry" />
        </mxCell>
        <mxCell id="pflW-3yKm34LbVUq-xgN-273" value="No" style="text;html=1;align=center;verticalAlign=middle;whiteSpace=wrap;rounded=0;" vertex="1" parent="1">
          <mxGeometry x="443" y="800" width="30" height="10" as="geometry" />
        </mxCell>
        <mxCell id="pflW-3yKm34LbVUq-xgN-286" style="edgeStyle=orthogonalEdgeStyle;rounded=0;orthogonalLoop=1;jettySize=auto;html=1;exitX=0.5;exitY=1;exitDx=0;exitDy=0;" edge="1" parent="1" source="pflW-3yKm34LbVUq-xgN-275" target="pflW-3yKm34LbVUq-xgN-271">
          <mxGeometry relative="1" as="geometry" />
        </mxCell>
        <mxCell id="pflW-3yKm34LbVUq-xgN-275" value="Complete the Task" style="rounded=0;whiteSpace=wrap;html=1;" vertex="1" parent="1">
          <mxGeometry x="380" y="1330" width="120" height="30" as="geometry" />
        </mxCell>
        <mxCell id="pflW-3yKm34LbVUq-xgN-281" style="edgeStyle=orthogonalEdgeStyle;rounded=0;orthogonalLoop=1;jettySize=auto;html=1;exitX=0.5;exitY=1;exitDx=0;exitDy=0;entryX=0.5;entryY=0;entryDx=0;entryDy=0;" edge="1" parent="1" source="pflW-3yKm34LbVUq-xgN-277" target="pflW-3yKm34LbVUq-xgN-280">
          <mxGeometry relative="1" as="geometry" />
        </mxCell>
        <mxCell id="pflW-3yKm34LbVUq-xgN-292" style="edgeStyle=orthogonalEdgeStyle;rounded=0;orthogonalLoop=1;jettySize=auto;html=1;exitX=0;exitY=0.5;exitDx=0;exitDy=0;entryX=0;entryY=0.75;entryDx=0;entryDy=0;" edge="1" parent="1" source="pflW-3yKm34LbVUq-xgN-277" target="pflW-3yKm34LbVUq-xgN-261">
          <mxGeometry relative="1" as="geometry" />
        </mxCell>
        <mxCell id="pflW-3yKm34LbVUq-xgN-277" value="PTL &lt;br&gt;Duplicate &lt;br&gt;Entry" style="rhombus;whiteSpace=wrap;html=1;" vertex="1" parent="1">
          <mxGeometry x="398.5" y="880" width="87" height="80" as="geometry" />
        </mxCell>
        <mxCell id="pflW-3yKm34LbVUq-xgN-285" style="edgeStyle=orthogonalEdgeStyle;rounded=0;orthogonalLoop=1;jettySize=auto;html=1;exitX=0.5;exitY=1;exitDx=0;exitDy=0;entryX=0.5;entryY=0;entryDx=0;entryDy=0;" edge="1" parent="1" source="pflW-3yKm34LbVUq-xgN-278" target="pflW-3yKm34LbVUq-xgN-275">
          <mxGeometry relative="1" as="geometry" />
        </mxCell>
        <mxCell id="pflW-3yKm34LbVUq-xgN-298" style="edgeStyle=orthogonalEdgeStyle;rounded=0;orthogonalLoop=1;jettySize=auto;html=1;exitX=0;exitY=0.5;exitDx=0;exitDy=0;entryX=0.5;entryY=1;entryDx=0;entryDy=0;" edge="1" parent="1" source="pflW-3yKm34LbVUq-xgN-278" target="pflW-3yKm34LbVUq-xgN-296">
          <mxGeometry relative="1" as="geometry" />
        </mxCell>
        <mxCell id="pflW-3yKm34LbVUq-xgN-278" value="Picked &lt;br&gt;Parts Matches&lt;br&gt;Order&amp;nbsp;" style="rhombus;whiteSpace=wrap;html=1;" vertex="1" parent="1">
          <mxGeometry x="396" y="1220" width="87" height="80" as="geometry" />
        </mxCell>
        <mxCell id="pflW-3yKm34LbVUq-xgN-283" style="edgeStyle=orthogonalEdgeStyle;rounded=0;orthogonalLoop=1;jettySize=auto;html=1;exitX=0.5;exitY=1;exitDx=0;exitDy=0;entryX=0.5;entryY=0;entryDx=0;entryDy=0;" edge="1" parent="1" source="pflW-3yKm34LbVUq-xgN-280" target="pflW-3yKm34LbVUq-xgN-282">
          <mxGeometry relative="1" as="geometry" />
        </mxCell>
        <mxCell id="pflW-3yKm34LbVUq-xgN-294" style="edgeStyle=orthogonalEdgeStyle;rounded=0;orthogonalLoop=1;jettySize=auto;html=1;exitX=0;exitY=0.5;exitDx=0;exitDy=0;" edge="1" parent="1" source="pflW-3yKm34LbVUq-xgN-280">
          <mxGeometry relative="1" as="geometry">
            <mxPoint x="380" y="850" as="targetPoint" />
            <Array as="points">
              <mxPoint x="360" y="1035" />
              <mxPoint x="360" y="850" />
            </Array>
          </mxGeometry>
        </mxCell>
        <mxCell id="pflW-3yKm34LbVUq-xgN-280" value="Duration &lt;br&gt;between two Picks &lt;br&gt;&amp;lt;2 Sec" style="rhombus;whiteSpace=wrap;html=1;" vertex="1" parent="1">
          <mxGeometry x="391" y="980" width="100" height="110" as="geometry" />
        </mxCell>
        <mxCell id="pflW-3yKm34LbVUq-xgN-284" style="edgeStyle=orthogonalEdgeStyle;rounded=0;orthogonalLoop=1;jettySize=auto;html=1;exitX=0.5;exitY=1;exitDx=0;exitDy=0;entryX=0.5;entryY=0;entryDx=0;entryDy=0;" edge="1" parent="1" source="pflW-3yKm34LbVUq-xgN-282" target="pflW-3yKm34LbVUq-xgN-278">
          <mxGeometry relative="1" as="geometry" />
        </mxCell>
        <mxCell id="pflW-3yKm34LbVUq-xgN-297" style="edgeStyle=orthogonalEdgeStyle;rounded=0;orthogonalLoop=1;jettySize=auto;html=1;exitX=0;exitY=0.5;exitDx=0;exitDy=0;entryX=1;entryY=0.5;entryDx=0;entryDy=0;" edge="1" parent="1" source="pflW-3yKm34LbVUq-xgN-282" target="pflW-3yKm34LbVUq-xgN-296">
          <mxGeometry relative="1" as="geometry" />
        </mxCell>
        <mxCell id="pflW-3yKm34LbVUq-xgN-282" value="Motion &lt;br&gt;Sensor Detection" style="rhombus;whiteSpace=wrap;html=1;" vertex="1" parent="1">
          <mxGeometry x="396" y="1110" width="87" height="90" as="geometry" />
        </mxCell>
        <mxCell id="pflW-3yKm34LbVUq-xgN-287" value="Yes" style="text;html=1;align=center;verticalAlign=middle;whiteSpace=wrap;rounded=0;" vertex="1" parent="1">
          <mxGeometry x="448" y="960" width="30" height="10" as="geometry" />
        </mxCell>
        <mxCell id="pflW-3yKm34LbVUq-xgN-288" value="Yes" style="text;html=1;align=center;verticalAlign=middle;whiteSpace=wrap;rounded=0;" vertex="1" parent="1">
          <mxGeometry x="443" y="1090" width="30" height="10" as="geometry" />
        </mxCell>
        <mxCell id="pflW-3yKm34LbVUq-xgN-289" value="Yes" style="text;html=1;align=center;verticalAlign=middle;whiteSpace=wrap;rounded=0;" vertex="1" parent="1">
          <mxGeometry x="443" y="1200" width="30" height="20" as="geometry" />
        </mxCell>
        <mxCell id="pflW-3yKm34LbVUq-xgN-290" value="Yes" style="text;html=1;align=center;verticalAlign=middle;whiteSpace=wrap;rounded=0;" vertex="1" parent="1">
          <mxGeometry x="443" y="1300" width="30" height="20" as="geometry" />
        </mxCell>
        <mxCell id="pflW-3yKm34LbVUq-xgN-293" value="No" style="text;html=1;align=center;verticalAlign=middle;whiteSpace=wrap;rounded=0;" vertex="1" parent="1">
          <mxGeometry x="374" y="910" width="30" height="10" as="geometry" />
        </mxCell>
        <mxCell id="pflW-3yKm34LbVUq-xgN-295" value="No" style="text;html=1;align=center;verticalAlign=middle;whiteSpace=wrap;rounded=0;" vertex="1" parent="1">
          <mxGeometry x="366" y="1020" width="30" height="10" as="geometry" />
        </mxCell>
        <mxCell id="pflW-3yKm34LbVUq-xgN-307" style="edgeStyle=orthogonalEdgeStyle;rounded=0;orthogonalLoop=1;jettySize=auto;html=1;exitX=0;exitY=0.5;exitDx=0;exitDy=0;entryX=1;entryY=0.5;entryDx=0;entryDy=0;" edge="1" parent="1" source="pflW-3yKm34LbVUq-xgN-296" target="pflW-3yKm34LbVUq-xgN-306">
          <mxGeometry relative="1" as="geometry" />
        </mxCell>
        <mxCell id="pflW-3yKm34LbVUq-xgN-296" value="Trigger Error Alert&lt;br&gt;Keep the PTL &#39;&lt;b&gt;ON&lt;/b&gt;&#39;" style="rounded=0;whiteSpace=wrap;html=1;" vertex="1" parent="1">
          <mxGeometry x="254" y="1140" width="120" height="30" as="geometry" />
        </mxCell>
        <mxCell id="pflW-3yKm34LbVUq-xgN-299" value="No" style="text;html=1;align=center;verticalAlign=middle;whiteSpace=wrap;rounded=0;" vertex="1" parent="1">
          <mxGeometry x="374" y="1130" width="30" height="20" as="geometry" />
        </mxCell>
        <mxCell id="pflW-3yKm34LbVUq-xgN-300" value="No" style="text;html=1;align=center;verticalAlign=middle;whiteSpace=wrap;rounded=0;" vertex="1" parent="1">
          <mxGeometry x="369" y="1240" width="30" height="20" as="geometry" />
        </mxCell>
        <mxCell id="pflW-3yKm34LbVUq-xgN-302" value="Turn third Order PTL [Yellow] if more than one Order in Pipeline" style="text;html=1;align=center;verticalAlign=middle;whiteSpace=wrap;rounded=0;rotation=270;" vertex="1" parent="1">
          <mxGeometry x="345" y="421" width="370" height="20" as="geometry" />
        </mxCell>
        <mxCell id="pflW-3yKm34LbVUq-xgN-303" style="edgeStyle=orthogonalEdgeStyle;rounded=0;orthogonalLoop=1;jettySize=auto;html=1;exitX=0.5;exitY=1;exitDx=0;exitDy=0;entryX=0.5;entryY=0;entryDx=0;entryDy=0;" edge="1" parent="1" source="pflW-3yKm34LbVUq-xgN-304" target="pflW-3yKm34LbVUq-xgN-305">
          <mxGeometry relative="1" as="geometry" />
        </mxCell>
        <mxCell id="pflW-3yKm34LbVUq-xgN-304" value="Complete the Task" style="rounded=0;whiteSpace=wrap;html=1;" vertex="1" parent="1">
          <mxGeometry x="830" y="600" width="120" height="30" as="geometry" />
        </mxCell>
        <mxCell id="pflW-3yKm34LbVUq-xgN-305" value="Confirm the Task" style="rounded=0;whiteSpace=wrap;html=1;" vertex="1" parent="1">
          <mxGeometry x="830" y="650" width="120" height="30" as="geometry" />
        </mxCell>
        <mxCell id="pflW-3yKm34LbVUq-xgN-309" style="edgeStyle=orthogonalEdgeStyle;rounded=0;orthogonalLoop=1;jettySize=auto;html=1;exitX=0.5;exitY=0;exitDx=0;exitDy=0;entryX=0.5;entryY=1;entryDx=0;entryDy=0;" edge="1" parent="1" source="pflW-3yKm34LbVUq-xgN-306" target="pflW-3yKm34LbVUq-xgN-308">
          <mxGeometry relative="1" as="geometry" />
        </mxCell>
        <mxCell id="pflW-3yKm34LbVUq-xgN-306" value="Capture the Log in MES" style="rounded=0;whiteSpace=wrap;html=1;" vertex="1" parent="1">
          <mxGeometry x="90" y="1140" width="140" height="30" as="geometry" />
        </mxCell>
        <mxCell id="pflW-3yKm34LbVUq-xgN-308" value="Notify Team Leader" style="rounded=0;whiteSpace=wrap;html=1;" vertex="1" parent="1">
          <mxGeometry x="90" y="1090" width="140" height="30" as="geometry" />
        </mxCell>
        <mxCell id="pflW-3yKm34LbVUq-xgN-310" value="All Parts &lt;br&gt;Picked" style="rhombus;whiteSpace=wrap;html=1;" vertex="1" parent="1">
          <mxGeometry x="613.5" y="630" width="87" height="90" as="geometry" />
        </mxCell>
      </root>
    </mxGraphModel>
  </diagram>
</mxfile>
